<svg height="384pt" viewBox="0 0 384 384" width="384pt" xmlns="http://www.w3.org/2000/svg"><path d="m192 0c-105.871094 0-192 86.128906-192 192s86.128906 192 192 192 192-86.128906 192-192-86.128906-192-192-192zm0 352c-88.222656 0-160-71.777344-160-160s71.777344-160 160-160 160 71.777344 160 160-71.777344 160-160 160zm0 0"/><path d="m232 112.71875v-32.71875h-32v32h-32v-32h-32v32h-32v32h32v96h-32v32h32v32h32v-32h32v32h32v-32.71875c22.664062-3.824219 40-23.539062 40-47.28125 0-12.304688-4.6875-23.496094-12.320312-32 7.632812-8.503906 12.320312-19.695312 12.320312-32 0-23.734375-17.335938-43.449219-40-47.28125zm-64 31.28125h56c8.824219 0 16 7.175781 16 16s-7.175781 16-16 16h-56zm56 96h-56v-32h56c8.824219 0 16 7.175781 16 16s-7.175781 16-16 16zm0 0"/></svg>