<?xml version="1.0" encoding="iso-8859-1"?>
<!-- Generator: Adobe Illustrator 19.0.0, SVG Export Plug-In . SVG Version: 6.00 Build 0)  -->
<svg version="1.1" id="Capa_1" xmlns="http://www.w3.org/2000/svg" xmlns:xlink="http://www.w3.org/1999/xlink" x="0px" y="0px"
	 viewBox="0 0 511.951 511.951" style="enable-background:new 0 0 511.951 511.951;" xml:space="preserve">
<g>
	<g>
		<g>
			<path d="M309.054,40.049c-4.598-1.045-9.172,1.836-10.217,6.433s1.836,9.172,6.433,10.217
				c112.734,25.618,186.934,133.47,170.557,247.912s-117.845,197.157-233.24,190.131C127.194,487.716,36.511,393.301,34.141,277.717
				S118.508,64.08,233.518,52.33l-27.839,26.86c-3.376,3.275-3.466,8.665-0.2,12.05c3.266,3.385,8.655,3.49,12.05,0.233
				l44.002-42.458c1.058-0.912,1.872-2.073,2.366-3.38c0.151-0.501,0.254-1.015,0.309-1.535c0.14-0.469,0.237-0.95,0.29-1.436
				c0-0.105-0.056-0.191-0.06-0.295c-0.002-0.238,0.115-0.457,0.093-0.697c-0.129-0.635-0.331-1.252-0.604-1.839
				c-0.08-0.225-0.123-0.457-0.221-0.673c-0.393-0.89-0.94-1.702-1.618-2.4l-0.195-0.203c-0.348-0.445-0.74-0.853-1.17-1.218
				L209.146,1.407c-3.935-2.591-9.226-1.502-11.817,2.434c-2.591,3.935-1.502,9.226,2.434,11.817l30.256,19.908
				C108.9,48.942,17.185,151.211,17.029,273.066c0.03,125.035,96.453,228.903,221.141,238.213
				c124.688,9.311,235.468-79.085,254.067-202.729C510.837,184.906,430.964,67.832,309.054,40.049z"/>
			<path d="M171.459,124.985L171.459,124.985c-0.282,0.078-0.559,0.172-0.83,0.281c-0.289,0.222-0.563,0.464-0.82,0.723
				c-25.155,14.799-46.123,35.766-60.922,60.921c-0.26,0.258-0.502,0.533-0.725,0.823c-0.107,0.27-0.2,0.545-0.278,0.826
				c-30.119,52.313-30.119,116.703,0,169.016c0.078,0.28,0.17,0.556,0.278,0.826c0.303,0.489,0.656,0.945,1.053,1.362
				c14.78,24.918,35.625,45.69,60.594,60.382c0.257,0.259,0.53,0.501,0.82,0.723c0.37,0.186,0.753,0.344,1.146,0.473
				c52.153,29.858,116.22,29.858,168.374,0c0.393-0.129,0.777-0.287,1.146-0.473c0.289-0.222,0.563-0.464,0.82-0.723
				c24.969-14.692,45.814-35.464,60.594-60.382c0.396-0.417,0.749-0.873,1.053-1.362c0.107-0.27,0.2-0.545,0.278-0.826
				c30.119-52.313,30.119-116.703,0-169.016c-0.077-0.28-0.17-0.556-0.278-0.826c-0.221-0.288-0.462-0.561-0.721-0.816
				c-14.799-25.159-35.768-46.128-60.926-60.928c-0.393-0.542-0.986-0.903-1.648-1.002
				C288.157,94.87,223.771,94.869,171.459,124.985z M264.496,127.999v-8.101c21.132,1.136,41.796,6.664,60.673,16.23l-4.065,7.037
				c-2.353,4.082-0.954,9.299,3.127,11.655c4.081,2.356,9.298,0.958,11.656-3.121l4.081-7.066
				c17.692,11.614,32.813,26.734,44.427,44.426l-7.066,4.081c-4.08,2.358-5.477,7.575-3.121,11.656
				c2.356,4.081,7.573,5.481,11.655,3.127l7.037-4.065c9.566,18.877,15.094,39.541,16.23,60.673h-8.101
				c-4.713,0-8.533,3.821-8.533,8.533c0,4.713,3.82,8.533,8.533,8.533h8.101c-1.136,21.132-6.664,41.796-16.23,60.673l-7.037-4.065
				c-2.641-1.526-5.896-1.527-8.537-0.002s-4.269,4.344-4.268,7.394c0.001,3.05,1.629,5.868,4.272,7.392l7.066,4.081
				c-11.614,17.692-26.735,32.813-44.427,44.427l-4.081-7.066c-1.524-2.643-4.341-4.271-7.392-4.272
				c-3.05-0.001-5.869,1.626-7.394,4.268c-1.525,2.642-1.524,5.896,0.002,8.537l4.065,7.037
				c-18.877,9.566-39.541,15.094-60.673,16.23v-8.101c0-4.713-3.82-8.533-8.533-8.533s-8.533,3.82-8.533,8.533v8.101
				c-21.132-1.136-41.796-6.664-60.673-16.23l4.065-7.037c2.353-4.082,0.954-9.299-3.127-11.655
				c-4.081-2.356-9.298-0.958-11.656,3.121l-4.081,7.066c-17.692-11.614-32.813-26.735-44.427-44.427l7.066-4.081
				c2.642-1.523,4.271-4.341,4.272-7.392s-1.626-5.869-4.268-7.394c-2.642-1.525-5.896-1.524-8.537,0.002l-7.037,4.065
				c-9.566-18.877-15.094-39.541-16.23-60.673h8.101c4.713,0,8.533-3.821,8.533-8.533c0-4.713-3.821-8.533-8.533-8.533h-8.101
				c1.136-21.132,6.664-41.796,16.23-60.673l7.037,4.065c2.641,1.526,5.896,1.527,8.537,0.002s4.269-4.344,4.268-7.394
				c-0.001-3.05-1.629-5.868-4.272-7.392l-7.066-4.081c11.614-17.692,26.735-32.813,44.427-44.427l4.081,7.066
				c1.523,2.643,4.341,4.271,7.392,4.272c3.05,0.001,5.869-1.626,7.394-4.268s1.524-5.896-0.002-8.537l-4.065-7.037
				c18.877-9.566,39.541-15.094,60.673-16.23v8.101c0,4.713,3.82,8.533,8.533,8.533S264.496,132.712,264.496,127.999z"/>
			<path d="M247.429,179.199v60.945c-16.101,4.129-26.871,19.277-25.481,35.841c1.389,16.564,14.531,29.706,31.095,31.095
				c16.564,1.389,31.712-9.38,35.841-25.481h35.345c4.713,0,8.533-3.821,8.533-8.533c0-4.713-3.82-8.533-8.533-8.533h-35.345
				c-3.111-11.947-12.441-21.277-24.388-24.388v-60.945c0-4.713-3.82-8.533-8.533-8.533S247.429,174.486,247.429,179.199z
				 M273.029,273.066c-0.012,9.421-7.646,17.055-17.067,17.067c-9.426,0-17.067-7.641-17.067-17.067s7.641-17.067,17.067-17.067
				S273.029,263.64,273.029,273.066z"/>
		</g>
	</g>
</g>
<g>
</g>
<g>
</g>
<g>
</g>
<g>
</g>
<g>
</g>
<g>
</g>
<g>
</g>
<g>
</g>
<g>
</g>
<g>
</g>
<g>
</g>
<g>
</g>
<g>
</g>
<g>
</g>
<g>
</g>
</svg>
