<svg id="Capa_1" enable-background="new 0 0 512 512" height="512" viewBox="0 0 512 512" width="512" xmlns="http://www.w3.org/2000/svg"><g><path d="m155.021 132.604c0 55.495 45.299 100.645 100.979 100.645s100.979-45.149 100.979-100.645c0-55.494-45.299-100.642-100.979-100.642s-100.979 45.148-100.979 100.642zm100.979-85.642c47.409 0 85.979 38.419 85.979 85.643 0 47.225-38.569 85.645-85.979 85.645s-85.979-38.42-85.979-85.645c0-47.224 38.57-85.643 85.979-85.643z"/><path d="m231.217 184.643v6.432c0 4.143 3.357 7.5 7.5 7.5s7.5-3.357 7.5-7.5v-6.432h12.266v6.432c0 4.143 3.357 7.5 7.5 7.5s7.5-3.357 7.5-7.5v-6.432h1.033c16.591 0 30.089-13.498 30.089-30.137 0-11.242-6.201-21.057-15.358-26.222 4.217-5.186 6.751-11.8 6.751-19.004 0-13.976-9.579-25.755-22.516-29.122v-7.398c0-4.143-3.357-7.5-7.5-7.5s-7.5 3.357-7.5 7.5v6.432h-12.266v-6.432c0-4.143-3.357-7.5-7.5-7.5s-7.5 3.357-7.5 7.5v6.432h-16.321c-4.143 0-7.5 3.357-7.5 7.5s3.357 7.5 7.5 7.5h5.864v75.452h-5.864c-4.143 0-7.5 3.357-7.5 7.5s3.357 7.5 7.5 7.5h16.322zm43.299-45.227c8.32 0 15.089 6.77 15.089 15.137 0 8.32-6.769 15.09-15.089 15.09h-38.756v-30.227zm6.482-30.089c0 8.32-6.77 15.089-15.09 15.089h-30.148v-30.226h30.148c8.321 0 15.09 6.769 15.09 15.137z"/><path d="m479.185 250.312h-49.561v-56.432c0-2.053 1.673-3.724 3.729-3.724h27.012c9.815 0 17.801-7.983 17.801-17.797v-50.539c12.556-3.313 21.839-14.734 21.839-28.278 0-16.129-13.162-29.251-29.341-29.251s-29.342 13.122-29.342 29.251c0 13.546 9.286 24.967 21.844 28.279v50.538c0 1.542-1.257 2.797-2.801 2.797h-27.012c-10.327 0-18.729 8.399-18.729 18.724v56.432h-97.405c42.635-22.119 71.82-66.577 71.82-117.706 0-73.12-59.681-132.606-133.039-132.606-18.535 0-36.476 3.729-53.321 11.082-3.797 1.657-5.53 6.078-3.874 9.874 1.659 3.798 6.08 5.529 9.874 3.874 14.942-6.522 30.864-9.83 47.321-9.83 65.087 0 118.039 52.758 118.039 117.605s-52.952 117.606-118.039 117.606-118.039-52.758-118.039-117.605c0-36.955 16.925-71.036 46.436-93.506 3.296-2.509 3.934-7.215 1.424-10.51-2.509-3.296-7.213-3.936-10.51-1.424-33.27 25.33-52.35 63.761-52.35 105.439 0 51.129 29.186 95.587 71.82 117.706h-95.51v-56.431c0-10.324-8.401-18.724-18.729-18.724h-27.011c-1.544 0-2.801-1.255-2.801-2.797v-50.538c12.559-3.312 21.846-14.733 21.846-28.28 0-16.129-13.163-29.251-29.342-29.251s-29.34 13.123-29.34 29.252c0 13.544 9.282 24.963 21.837 28.277v50.54c0 9.813 7.985 17.797 17.801 17.797h27.012c2.056 0 3.729 1.671 3.729 3.724v56.432h-51.458c-12.58 0-22.815 10.234-22.815 22.814v216.059c0 12.58 10.235 22.815 22.815 22.815h446.369c12.58 0 22.815-10.235 22.815-22.815v-216.059c.001-12.58-10.234-22.814-22.814-22.814zm-22.864-156.77c0-7.858 6.434-14.251 14.342-14.251 7.907 0 14.341 6.393 14.341 14.251s-6.434 14.251-14.341 14.251c-7.908 0-14.342-6.393-14.342-14.251zm-427.427 0c0-7.858 6.434-14.251 14.341-14.251 7.908 0 14.342 6.393 14.342 14.251s-6.434 14.251-14.342 14.251-14.341-6.393-14.341-14.251zm450.291 171.77c4.31 0 7.815 3.506 7.815 7.814v216.059c0 4.31-3.506 7.815-7.815 7.815h-446.37c-4.31 0-7.815-3.506-7.815-7.815v-216.059c0-4.309 3.506-7.814 7.815-7.814z"/><path d="m463.595 281.201h-415.19c-4.143 0-7.5 3.357-7.5 7.5v184.909c0 4.143 3.357 7.5 7.5 7.5h310.266c4.143 0 7.5-3.357 7.5-7.5s-3.357-7.5-7.5-7.5h-302.766v-169.909h400.189v169.909h-65.139c-4.143 0-7.5 3.357-7.5 7.5s3.357 7.5 7.5 7.5h72.639c4.143 0 7.5-3.357 7.5-7.5v-184.909c.001-4.142-3.357-7.5-7.499-7.5z"/><path d="m170.938 329.339h-25.983c-4.143 0-7.5 3.357-7.5 7.5v41.25.066 48.265c0 1.995.795 3.907 2.209 5.315 1.405 1.399 3.308 2.185 5.291 2.185h.033c.239-.001 23.985-.106 30.488-.106 17.412 0 31.577-14.182 31.577-31.612 0-11.195-5.848-21.042-14.641-26.66 4.12-4.893 6.609-11.205 6.609-18.09 0-15.502-12.597-28.113-28.083-28.113zm0 15c7.214 0 13.083 5.882 13.083 13.112s-5.869 13.113-13.083 13.113c-1.914 0-5.519.01-9.45.024h-9.034v-26.25h18.484zm4.539 74.474c-4.179 0-15.404.043-23.021.074v-33.264c2.779-.011 5.989-.024 9.014-.035h14.007c9.141 0 16.577 7.452 16.577 16.612s-7.437 16.613-16.577 16.613z"/><path d="m227.325 329.339c-4.143 0-7.5 3.357-7.5 7.5v61.642c0 12.353 5.755 22.017 17.596 29.547 6.135 3.9 13.067 5.883 20.603 5.893h.067c6.523 0 12.637-1.406 18.172-4.181 17.44-8.742 21.102-21.858 21.102-31.323v-61.577c0-4.143-3.357-7.5-7.5-7.5s-7.5 3.357-7.5 7.5v61.577c0 4.931-1.329 12.152-12.822 17.913-3.431 1.72-7.283 2.591-11.453 2.591-.016 0-.03 0-.045 0-4.647-.006-8.879-1.201-12.575-3.55-7.46-4.745-10.644-9.796-10.644-16.89v-61.642c-.001-4.143-3.358-7.5-7.501-7.5z"/><path d="m374.809 330.731c-3.539-2.151-8.154-1.024-10.304 2.517l-20.036 32.984-20.239-33.22c-2.156-3.537-6.771-4.656-10.308-2.503-3.537 2.155-4.657 6.771-2.503 10.308l25.555 41.943-.099 43.566c-.01 4.142 3.341 7.507 7.483 7.517h.017c4.135 0 7.49-3.347 7.5-7.483l.099-43.59 25.352-41.735c2.15-3.54 1.023-8.153-2.517-10.304z"/></g></svg>