<svg id="Layer_1" enable-background="new 0 0 511.431 511.431" height="512" viewBox="0 0 511.431 511.431" width="512" xmlns="http://www.w3.org/2000/svg"><g><path d="m131.148 137.555-7.538-29.038-47.98 12.455c17.577-23.663 39.725-43.774 65.254-59.027 51.58-30.817 112.075-39.704 170.336-25.023 58.263 14.681 107.322 51.172 138.14 102.751 20.973 35.104 31.996 75.15 31.877 115.808l30 .088c.135-46.105-12.356-91.502-36.124-131.283-34.927-58.459-90.53-99.816-156.563-116.455-66.035-16.639-134.594-6.568-193.053 28.361-29.11 17.393-54.358 40.352-74.34 67.394l-11.537-44.44-29.037 7.538 24.847 95.717z"/><path d="m380.197 373.969 7.517 29.043 47.989-12.42c-17.595 23.65-39.757 43.744-65.297 58.979-51.602 30.779-112.099 39.624-170.354 24.898-58.252-14.724-107.285-51.25-138.064-102.853-20.948-35.119-31.941-75.173-31.792-115.831l-30-.11c-.169 46.106 12.289 91.512 36.027 131.31 34.885 58.484 90.456 99.883 156.478 116.57 20.854 5.271 41.957 7.876 62.92 7.876 45.407 0 90.142-12.229 130.153-36.096 29.123-17.371 54.388-40.313 74.39-67.34l11.504 44.449 29.043-7.517-24.777-95.736z"/><path d="m104.573 255.935c0 83.374 67.83 151.204 151.204 151.204s151.204-67.83 151.204-151.204-67.83-151.204-151.204-151.204-151.204 67.83-151.204 151.204zm272.407 0c0 66.832-54.372 121.204-121.204 121.204s-121.204-54.372-121.204-121.204 54.372-121.204 121.204-121.204 121.204 54.372 121.204 121.204z"/><path d="m240.784 159.834v19.077h-43.647v30h17.999v92.681h-17.999v30h43.647v19.077h30v-19.077h2.482c26.026 0 47.2-21.174 47.2-47.2 0-15.031-7.071-28.433-18.051-37.083 4.601-6.966 7.289-15.302 7.289-24.257 0-22.572-17.034-41.229-38.92-43.821v-19.396h-30zm32.482 107.356c9.484 0 17.2 7.716 17.2 17.201s-7.716 17.2-17.2 17.2h-28.131v-34.401zm6.438-44.139c0 7.797-6.343 14.14-14.14 14.14h-20.429v-28.28h20.429c7.797-.001 14.14 6.343 14.14 14.14z"/></g></svg>